<svg xmlns="http://www.w3.org/2000/svg" viewBox="0 0 47.06 35.92"><defs><style>.cls-1{fill:#231f20;}</style></defs><title>Zasób 67</title><g id="Warstwa_2" data-name="Warstwa 2"><g id="Warstwa_1-2" data-name="Warstwa 1"><path class="cls-1" d="M45.93,0H1.42A1.43,1.43,0,0,0,0,1.42V29.08a1.61,1.61,0,0,0,1.6,1.61H22.78v3.73H7.38a.75.75,0,0,0,0,1.5h32.3a.75.75,0,0,0,0-1.5H24.28V30.69H45.37A1.69,1.69,0,0,0,47.06,29V1.13A1.13,1.13,0,0,0,45.93,0Zm-.37,29a.2.2,0,0,1-.19.19H1.6a.11.11,0,0,1-.1-.11V1.5H45.56Z"/></g></g></svg>